<?xml version="1.0" encoding="utf-8"?>
<!-- Generator: Adobe Illustrator 25.4.1, SVG Export Plug-In . SVG Version: 6.00 Build 0)  -->
<svg version="1.1" id="Layer_1" xmlns="http://www.w3.org/2000/svg" xmlns:xlink="http://www.w3.org/1999/xlink" x="0px" y="0px"
	 viewBox="0 0 512 512" style="enable-background:new 0 0 512 512;" xml:space="preserve">
<style type="text/css">
	.st0{fill:url(#SVGID_1_);}
	.st1{fill:none;}
	.st2{fill:url(#SVGID_00000111881812964450012950000015712348186232325276_);}
	.st3{fill:url(#SVGID_00000165937197992704799050000001453800299486121870_);}
	.st4{fill:url(#SVGID_00000022557734558412262650000005582382961077566888_);}
	.st5{fill:url(#SVGID_00000060028346243863117830000009328518447118562201_);}
	.st6{fill:#A8711A;}
	.st7{fill:url(#SVGID_00000106856784435204798770000002640797853681662633_);}
	.st8{fill:url(#SVGID_00000112633978735359535360000012823269179280379811_);}
	.st9{fill:url(#SVGID_00000145047334562714813570000012127126869371958912_);}
	.st10{fill:url(#SVGID_00000098926428708611423490000000896855083520766352_);}
	.st11{fill:url(#SVGID_00000044873740430112356920000007573110237603224477_);}
</style>
<linearGradient id="SVGID_1_" gradientUnits="userSpaceOnUse" x1="25.7874" y1="27.2374" x2="486.8126" y2="488.2626" gradientTransform="matrix(1 0 0 -1 0 514)">
	<stop  offset="0" style="stop-color:#000000"/>
	<stop  offset="1" style="stop-color:#505050"/>
</linearGradient>
<path class="st0" d="M87.3,0.2h338c48.1,0,87,39,87,87v338c0,48.1-39,87-87,87h-338c-48.1,0-87-39-87-87v-338
	C0.3,39.2,39.3,0.2,87.3,0.2z"/>
<path class="st1" d="M-63.7,104.4c-13.2,15.1-19.4,34.8-19.4,55.8c0,20,10,39.2,22.8,53.1c12.5,13.3,30.5,25,60.6,26.8V87.2
	c0-4.5,0.3-8.8,1-13.1c-0.6,0-1,0-1.4,0C-26.2,74.3-50.3,89.3-63.7,104.4z"/>
<linearGradient id="SVGID_00000000183185554228121170000001057688250461756595_" gradientUnits="userSpaceOnUse" x1="-14.716" y1="700.1981" x2="446.3092" y2="239.1729" gradientTransform="matrix(1 0 0 1 0 -254)">
	<stop  offset="0" style="stop-color:#000000"/>
	<stop  offset="1" style="stop-color:#505050"/>
</linearGradient>
<path style="fill:url(#SVGID_00000000183185554228121170000001057688250461756595_);" d="M3.5,292h0.3c41,0.2,74.8-17.1,100.1-40
	c16.5-14.9,28.9-31,41.6-48.5l5.4-7.5c15.1-21.3,28.2-41.5,41.9-59.9c12.9-17.6,25.8-32.2,38.9-41.6c13.2-9.4,25.7-14.2,42.3-14.4
	c3,0,5.9,0.2,8.9,0.5c24.5,2.8,40.1,12.7,51.3,26.5c11.1,13.7,17,32.3,17,51.3c0,20.6-7.1,41-19.9,55.4
	c-12.9,14.3-30.8,24-58.9,24.2c-3.5,0-7.1-0.2-10.9-0.5c-32.2-3.8-44.7-15.9-52.7-26.6c-3-4.2-5.3-8.9-7-13.7L167,245.9
	c15.9,20.9,45.3,41.5,89,45.8h0.3l0,0c5.5,0.5,10.8,0.8,16.1,0.8h0.8c41.7,0,76.5-17,98.9-42.6c22.7-25.7,33.5-58.8,33.5-91.5
	c0-30.1-9.2-60.6-29-85.3c-19.6-24.7-50.2-42.6-87.9-46.5c-4.9-0.5-9.8-0.8-14.7-0.8c-38.6-0.2-70,17.9-93.2,40.8
	C145.7,101,122,146.6,95,181.3c-13.3,17.4-27.1,34.1-41.7,43.7C38.5,235,21,240.4,3.2,240.4c-1,0-1.9-0.1-2.9-0.1v51.8
	c0.9,0,1.8,0.1,2.7,0.1L3.5,292z"/>
<linearGradient id="SVGID_00000075883573254331151180000011111837131163087774_" gradientUnits="userSpaceOnUse" x1="-133.6247" y1="354.8509" x2="405.7078" y2="354.8509" gradientTransform="matrix(1 0 0 -1 0 514)">
	<stop  offset="0" style="stop-color:#000000"/>
	<stop  offset="1" style="stop-color:#000000"/>
</linearGradient>
<path style="fill:url(#SVGID_00000075883573254331151180000011111837131163087774_);" d="M3.5,292h0.3c41,0.2,74.8-17.1,100.1-40
	c16.5-14.9,28.9-31,41.6-48.5l5.4-7.5c15.1-21.3,28.2-41.5,41.9-59.9c12.9-17.6,25.8-32.2,38.9-41.6c13.2-9.4,25.7-14.2,42.3-14.4
	c3,0,5.9,0.2,8.9,0.5c24.5,2.8,40.1,12.7,51.3,26.5c11.1,13.7,17,32.3,17,51.3c0,20.6-7.1,41-19.9,55.4
	c-12.9,14.3-30.8,24-58.9,24.2c-3.5,0-7.1-0.2-10.9-0.5c-32.2-3.8-44.7-15.9-52.7-26.6c-3-4.2-5.3-8.9-7-13.7L167,245.9
	c15.9,20.9,45.3,41.5,89,45.8h0.3l0,0c5.5,0.5,10.8,0.8,16.1,0.8h0.8c41.7,0,76.5-17,98.9-42.6c22.7-25.7,33.5-58.8,33.5-91.5
	c0-30.1-9.2-60.6-29-85.3c-19.6-24.7-50.2-42.6-87.9-46.5c-4.9-0.5-9.8-0.8-14.7-0.8c-38.6-0.2-70,17.9-93.2,40.8
	C145.7,101,122,146.6,95,181.3c-13.3,17.4-27.1,34.1-41.7,43.7C38.5,235,21,240.4,3.2,240.4c-1,0-1.9-0.1-2.9-0.1v51.8
	c0.9,0,1.8,0.1,2.7,0.1L3.5,292z"/>
<linearGradient id="SVGID_00000126325336737622455640000001541791879070287756_" gradientUnits="userSpaceOnUse" x1="-163.758" y1="551.1561" x2="297.2672" y2="90.1309" gradientTransform="matrix(1 0 0 1 0 -254)">
	<stop  offset="0" style="stop-color:#000000"/>
	<stop  offset="1" style="stop-color:#505050"/>
</linearGradient>
<path style="fill:url(#SVGID_00000126325336737622455640000001541791879070287756_);" d="M1.3,74.1c2.8,0.1,8.2,0.2,9.9,0.3
	c20.6,2.2,32.3,7.5,42.5,15.3c10.2,7.9,24.8,21.4,31.3,40.5L116.7,88c-8.4-16.1-20.4-28.3-34-38.7C66.2,36.7,47,29.3,26.2,25.4
	C13.1,38.3,4.2,55.2,1.3,74.1z"/>
<linearGradient id="SVGID_00000077300964599692635270000001252440756718690711_" gradientUnits="userSpaceOnUse" x1="-133.6247" y1="436.2" x2="405.7078" y2="436.2" gradientTransform="matrix(1 0 0 -1 0 514)">
	<stop  offset="0" style="stop-color:#000000"/>
	<stop  offset="1" style="stop-color:#000000"/>
</linearGradient>
<path style="fill:url(#SVGID_00000077300964599692635270000001252440756718690711_);" d="M1.3,74.1c2.8,0.1,8.2,0.2,9.9,0.3
	c20.6,2.2,32.3,7.5,42.5,15.3c10.2,7.9,24.8,21.4,31.3,40.5L116.7,88c-8.4-16.1-20.4-28.3-34-38.7C66.2,36.7,47,29.3,26.2,25.4
	C13.1,38.3,4.2,55.2,1.3,74.1z"/>
<path class="st6" d="M260.2,350.7c28.9,0,58.4-5.9,88.1-17.5c48.4-19.1,97.3-53.7,145.3-103.1l-19.5-19
	c-44.9,46.2-90.3,78.6-134.7,96.4c-34.9,13.9-69.4,18.8-102.4,14.6c-56.5-7.2-90.3-39.2-90.7-39.5l-19,19.4
	c1.6,1.5,39.6,37.9,104.5,46.7C241.1,350.1,250.6,350.7,260.2,350.7z"/>
<linearGradient id="SVGID_00000157295175351345989980000004885648585478470019_" gradientUnits="userSpaceOnUse" x1="208.95" y1="235.75" x2="420.25" y2="24.45" gradientTransform="matrix(1 0 0 -1 0 514)">
	<stop  offset="0" style="stop-color:#000000"/>
	<stop  offset="1" style="stop-color:#000000"/>
</linearGradient>
<rect x="116.9" y="370.3" style="fill:url(#SVGID_00000157295175351345989980000004885648585478470019_);" width="395.4" height="27.2"/>
<linearGradient id="SVGID_00000003791669772823977860000000855931636698346148_" gradientUnits="userSpaceOnUse" x1="141.2679" y1="856.1821" x2="602.2932" y2="395.1568" gradientTransform="matrix(1 0 0 1 0 -254)">
	<stop  offset="0" style="stop-color:#000000"/>
	<stop  offset="1" style="stop-color:#505050"/>
</linearGradient>
<path style="fill:url(#SVGID_00000003791669772823977860000000855931636698346148_);" d="M116.9,443.4h393.5
	c1.2-5.9,1.9-11.9,1.9-18.2v-9H116.9V443.4z"/>
<linearGradient id="SVGID_00000086663706194859795850000011696078841868105623_" gradientUnits="userSpaceOnUse" x1="116.9" y1="84.2" x2="525.1729" y2="84.2" gradientTransform="matrix(1 0 0 -1 0 514)">
	<stop  offset="0" style="stop-color:#000000"/>
	<stop  offset="1" style="stop-color:#000000"/>
</linearGradient>
<path style="fill:url(#SVGID_00000086663706194859795850000011696078841868105623_);" d="M116.9,443.4h393.5
	c1.2-5.9,1.9-11.9,1.9-18.2v-9H116.9V443.4z"/>
<linearGradient id="SVGID_00000175317358489992898350000011456363536896721567_" gradientUnits="userSpaceOnUse" x1="157.6718" y1="872.5859" x2="618.6969" y2="411.5607" gradientTransform="matrix(1 0 0 1 0 -254)">
	<stop  offset="0" style="stop-color:#000000"/>
	<stop  offset="1" style="stop-color:#505050"/>
</linearGradient>
<path style="fill:url(#SVGID_00000175317358489992898350000011456363536896721567_);" d="M116.9,489.3h367.2
	c8.3-7.6,15.1-16.9,20-27.2H116.9V489.3z"/>
<linearGradient id="SVGID_00000061472600194487344630000004613506359416896641_" gradientUnits="userSpaceOnUse" x1="116.9" y1="38.3" x2="525.1729" y2="38.3" gradientTransform="matrix(1 0 0 -1 0 514)">
	<stop  offset="0" style="stop-color:#000000"/>
	<stop  offset="1" style="stop-color:#000000"/>
</linearGradient>
<path style="fill:url(#SVGID_00000061472600194487344630000004613506359416896641_);" d="M116.9,489.3h367.2
	c8.3-7.6,15.1-16.9,20-27.2H116.9V489.3z"/>
</svg>
